<?xml version="1.0" encoding="UTF-8" standalone="no"?>
<!DOCTYPE svg PUBLIC "-//W3C//DTD SVG 1.1//EN" "http://www.w3.org/Graphics/SVG/1.1/DTD/svg11.dtd">
<svg width="100%" height="100%" viewBox="0 0 1024 1024" version="1.1" xmlns="http://www.w3.org/2000/svg" xmlns:xlink="http://www.w3.org/1999/xlink" xml:space="preserve" xmlns:serif="http://www.serif.com/" style="fill-rule:evenodd;clip-rule:evenodd;stroke-linejoin:round;stroke-miterlimit:2;">
    <g transform="matrix(0.999465,-0.032694,0.032694,0.999465,-35.59581,7.060859)">
        <path d="M95.525,39.382C96.967,34.782 101.153,30.411 108.72,27.273C121.265,22.069 145.011,19.322 177.115,18.695C353.835,15.243 792.635,71.954 973.205,53.102C983.211,52.057 990.428,56.244 995.286,65.182C999.061,72.127 1001.267,82.606 1001.97,96.098C1004.95,153.307 982.185,269.321 976.386,388.329C969.149,536.88 985.053,757.92 975.76,884.161C973.311,917.436 969.057,944.269 962.348,961.778C957.085,975.51 949.925,983.904 941.701,986.852C901.627,1001.213 823.132,1009.789 728.159,1013.6C508.093,1022.431 199.036,1006.185 78.258,981.288C74.562,980.526 71.113,978.107 68.429,973.528C64.565,966.934 62.009,954.304 61.014,936.988C55.796,846.186 87.885,616.8 93.158,500.962C99.432,363.138 88.602,258.316 85.128,176.788C82.768,121.411 83.862,76.592 95.525,39.382ZM264.447,212.385C240.456,272.039 204.628,508.332 202.831,672.21C202.371,714.103 204.133,751.239 208.948,779.406C212.006,797.289 216.197,811.424 222.038,820.528C224.833,824.884 230.981,828.643 239.53,832.378C254.343,838.849 275.946,844.431 302.206,849.122C406.268,867.711 582.319,871.802 704.219,855.444C748.341,849.524 785.289,840.99 808.85,829.337C822.483,822.594 831.531,815.274 833.272,806.132C861.178,659.584 868.307,458.568 845.358,332.38C839.557,300.483 831.858,273.434 822,253.425C815.818,240.877 808.865,231.184 800.879,225.113C790.537,217.249 762.641,208.951 724.879,200.994C634.026,181.851 487.195,166.45 382.317,173.591C344.497,176.166 312.213,181.618 290.274,191.074C277.269,196.679 268.037,203.459 264.447,212.385Z"/>
    </g>
    <g transform="matrix(0.999465,-0.032694,0.032694,0.999465,-35.59581,7.060859)">
        <path d="M754.562,257.876C771.816,268.176 786.567,292.312 797.164,326.065C819.577,397.451 826.206,513.497 818.818,612.649C813.824,679.659 802.283,738.984 785.465,772.261C776.663,789.68 765.865,800.546 754.615,804.47C690.434,826.853 574.545,840.016 470.693,832.09C400.207,826.71 335.3,811.412 294.96,783.618C277.404,771.523 264.508,749.574 256.424,720.46C245.377,680.675 242.853,626.929 246.095,569.606C251.689,470.712 274.256,361.064 297.454,295.63C308.293,265.057 319.986,243.72 329.702,235.578C345.496,222.341 381.014,212.254 426.454,207.71C527.25,197.631 678.031,212.191 754.562,257.876ZM384.506,326.554C376.27,333.531 369.829,345.88 364.342,361.528C355.096,387.895 349.312,423.18 346.519,461.184C342.271,518.976 345.017,583.008 353.796,632.18C359.283,662.913 366.72,687.645 376.93,700.133C399.739,728.033 448.736,740.626 501.1,745.99C582.422,754.321 672.629,743.799 694.882,733.327C703.613,729.219 710.877,719.126 717.577,705.568C729.414,681.617 738.15,647.221 743.219,608.786C750.945,550.212 750.043,482.322 737.541,426.837C729.591,391.557 717.144,361.352 698.603,342.726C690.159,334.244 675.604,326.651 657.448,319.931C628.044,309.048 589.517,300.992 549.945,297.58C485.603,292.034 418.187,298.019 384.506,326.554Z"/>
    </g>
    <g transform="matrix(0.999465,-0.032694,0.032694,0.999465,-33.276787,9.593859)">
        <path d="M377.598,542.937C367.193,483.644 381.078,435.979 407.717,401.683C447.812,350.063 517.126,328.676 577.937,343.779C645.257,360.498 702.777,421.63 697.551,536.448C696.328,563.3 696.89,594.601 690.183,621.604C685.414,640.807 677.006,657.882 662.354,670.234C604.361,719.122 497.575,730.124 431.525,668.558C402.81,641.793 387.3,598.223 377.598,542.937ZM433.021,527.159C432.203,565.305 460.014,601.112 494.973,623.125C529.646,644.957 571.758,653.6 601.053,635.585C626.292,620.063 640.866,585.083 634.113,523.782C626.506,454.745 593.679,417.711 555.911,408.071C499.635,393.706 434.882,440.31 433.021,527.159Z"/>
    </g>
    <g transform="matrix(0.999465,-0.032694,0.032694,0.999465,-40.153104,4.463477)">
        <path d="M498.755,528.047C510.951,573.741 556.308,576.168 582.937,561.886C604.427,550.359 608.701,526.618 610.879,514.47C611.396,511.588 612.062,509.677 612.686,508.571L613.581,507.323L614.535,506.508L616.126,505.846L617.076,505.756L618.007,505.869L618.977,506.214L619.74,506.68L621.142,508.195C622.138,509.701 623.194,512.917 623.802,517.371C625.021,526.32 624.854,540.875 620.999,554.942C612.645,585.422 587.139,621.779 541.075,620.549C496.348,619.354 467.693,581.184 461.339,540.53C454.955,499.681 471.094,456.765 514.851,446.511C540.572,440.484 560.419,445.377 573.928,455.181C593.353,469.277 599.815,493.653 592.185,512.235C587.047,524.748 575.599,534.803 557.237,537.377C546.982,538.815 538.945,533.571 533.406,526.859C528.108,520.439 525.202,512.742 524.655,509.161C524.553,508.494 524.52,507.922 524.532,507.461L524.746,506.045L525.368,504.751L526.339,503.778L527.539,503.201L528.802,503.048L530.504,503.482L531.826,504.42C535.214,507.647 541.857,512.158 548.193,514.2C551.569,515.289 554.838,515.864 557.15,514.313C558.196,513.611 558.925,512.425 559.398,510.752C560.06,508.414 560.187,505.314 559.742,501.296C558.511,490.203 546.576,485.331 533.934,485.581C521.858,485.819 508.768,490.865 501.922,501.12C497.425,507.857 495.762,516.831 498.755,528.047Z"/>
    </g>
</svg>
